<?xml version="1.0" encoding="UTF-8" standalone="no"?>
<!-- Created with Inkscape (http://www.inkscape.org/) -->

<svg
   width="210mm"
   height="297mm"
   viewBox="0 0 210 297"
   version="1.1"
   id="svg4494"
   inkscape:version="1.2 (dc2aeda, 2022-05-15)"
   sodipodi:docname="all_arrows.svg"
   xmlns:inkscape="http://www.inkscape.org/namespaces/inkscape"
   xmlns:sodipodi="http://sodipodi.sourceforge.net/DTD/sodipodi-0.dtd"
   xmlns="http://www.w3.org/2000/svg"
   xmlns:svg="http://www.w3.org/2000/svg">
  <sodipodi:namedview
     id="namedview4496"
     pagecolor="#ffffff"
     bordercolor="#000000"
     borderopacity="0.25"
     inkscape:showpageshadow="2"
     inkscape:pageopacity="0.0"
     inkscape:pagecheckerboard="0"
     inkscape:deskcolor="#d1d1d1"
     inkscape:document-units="mm"
     showgrid="true"
     inkscape:zoom="0.77456432"
     inkscape:cx="297.58665"
     inkscape:cy="391.83318"
     inkscape:window-width="1781"
     inkscape:window-height="953"
     inkscape:window-x="0"
     inkscape:window-y="25"
     inkscape:window-maximized="0"
     inkscape:current-layer="layer1">
    <inkscape:grid
       type="xygrid"
       id="grid4658" />
  </sodipodi:namedview>
  <defs
     id="defs4491" />
  <g
     inkscape:label="Layer 1"
     inkscape:groupmode="layer"
     id="layer1">
    <rect
       style="opacity:0.81;fill:#000000;fill-opacity:1;stroke:#fdfdfd;stroke-width:0.946815;stroke-opacity:1"
       id="rect5712"
       width="49.053185"
       height="49.053185"
       x="13.329296"
       y="6.3578978"
       ry="0.027100287" />
    <rect
       style="opacity:0.81;fill:#000000;fill-opacity:1;stroke:#fdfdfd;stroke-width:0.946815;stroke-opacity:1"
       id="rect5712-2"
       width="49.053185"
       height="49.053185"
       x="73.821846"
       y="6.3578978"
       ry="0.027100287" />
    <rect
       style="opacity:0.81;fill:#800000;fill-opacity:1;stroke:#fdfdfd;stroke-width:1.233;stroke-opacity:1"
       id="rect4907"
       width="201.63675"
       height="139.66376"
       x="4.0417166"
       y="150.44167"
       ry="0.037463386" />
    <path
       id="rect4498"
       style="opacity:0.81;fill:#ffffff;fill-opacity:1;stroke:#000000;stroke-width:0.773285;stroke-opacity:1"
       d="m 49.421172,166.11403 -19.780024,48.20222 c 4.4352,-4.87076 12.252462,-10.97287 12.252462,-10.97287 l -0.330357,68.54043 c -8e-5,0.0166 0.01337,0.03 0.02997,0.03 h 16.343705 c 0.01661,0 0.02997,-0.0134 0.02997,-0.03 l 0.165179,-68.19264 10.90044,9.96437 z"
       sodipodi:nodetypes="cccssssccc" />
    <path
       id="rect4498-0"
       style="opacity:0.81;fill:#ffffff;fill-opacity:1;stroke:#000000;stroke-width:0.324599;stroke-opacity:1"
       d="m 37.891347,8.8110486 -8.30298,20.2336494 c 1.861746,-2.044579 5.143166,-4.606037 5.143166,-4.606037 L 34.59286,53.209599 c -3.3e-5,0.007 0.0056,0.01259 0.01258,0.01259 h 6.86053 c 0.007,0 0.01258,-0.0056 0.01258,-0.01259 l 0.06934,-28.624948 4.575633,4.182703 z"
       sodipodi:nodetypes="cccssssccc" />
    <path
       id="rect4498-6"
       style="opacity:0.81;fill:#ffffff;fill-opacity:1;stroke:#000000;stroke-width:0.773285;stroke-opacity:1"
       d="m 111.87065,167.00085 -25.249226,39.64172 c 4.4352,-4.87076 17.721656,-2.41236 17.721656,-2.41236 l -0.33035,68.54042 c -8e-5,0.0166 0.0134,0.03 0.03,0.03 h 16.3437 c 0.0166,0 0.03,-0.0134 0.03,-0.03 l 0.16518,-68.19264 c 0,0 6.57552,-2.82194 15.65628,-0.0229 -8.75363,-12.89521 -24.36724,-37.55426 -24.36724,-37.55426 z"
       sodipodi:nodetypes="cccssssccc" />
    <path
       id="rect4498-6-7"
       style="opacity:0.81;fill:#ffffff;fill-opacity:1;stroke:#000000;stroke-width:0.325494;stroke-opacity:1"
       d="M 98.405226,8.6880697 87.777215,25.374224 c 1.866883,-2.05022 7.459475,-1.01542 7.459475,-1.01542 l -0.139053,28.850311 c -3.3e-5,0.007 0.0056,0.01263 0.01263,0.01263 h 6.879463 c 0.007,0 0.0126,-0.0056 0.0126,-0.01263 l 0.0695,-28.703922 c 0,0 2.76779,-1.187823 6.5901,-0.0096 C 104.97737,19.067649 98.405226,8.6880607 98.405226,8.6880607 Z"
       sodipodi:nodetypes="cccssssccc" />
    <path
       id="rect4498-6-1"
       style="opacity:0.81;fill:#ffffff;fill-opacity:1;stroke:#000000;stroke-width:0.773285;stroke-opacity:1"
       d="m 176.12487,167.32896 -25.24923,39.64172 c 4.4352,-4.87077 18.44419,-5.84438 18.44419,-5.84438 8.8001,36.21212 3.96516,51.20612 2.46805,71.97243 0.59308,0.067 4.17814,-0.15063 9.78202,-0.15063 -3.36368,-23.34995 -3.67337,-51.07956 0.91771,-71.11275 0,0 9.285,-1.73815 18.0045,4.31229 -8.75363,-12.89521 -24.36724,-38.81868 -24.36724,-38.81868 z"
       sodipodi:nodetypes="cccccccc" />
    <g
       id="g6666"
       inkscape:export-filename="../../../png/arrow_narrow.png"
       inkscape:export-xdpi="96"
       inkscape:export-ydpi="96">
      <rect
         style="opacity:0.81;fill:#868686;fill-opacity:0;stroke:#fdfdfd;stroke-width:0.946815;stroke-opacity:0"
         id="rect5712-2-3"
         width="49.053185"
         height="49.053185"
         x="143.4292"
         y="6.3578978"
         ry="0.027100287" />
      <path
         id="rect4498-6-1-7"
         style="opacity:0.81;fill:#ffffff;fill-opacity:1;stroke:#000000;stroke-width:0.325503;stroke-opacity:1"
         d="M 168.14273,8.6935142 157.51445,25.380099 c 1.86693,-2.050277 7.7638,-2.460104 7.7638,-2.460104 3.70427,15.242945 1.66908,21.554445 1.03889,30.29571 0.24965,0.0282 1.75873,-0.06341 4.1176,-0.06341 -1.41589,-9.828809 -1.54625,-21.501171 0.38629,-29.93384 0,0 3.90838,-0.731648 7.57872,1.815193 -3.6847,-5.428044 -10.25702,-16.3401378 -10.25702,-16.3401378 z"
         sodipodi:nodetypes="cccccccc"
         inkscape:export-filename="../../../png/arrow_narrow.png"
         inkscape:export-xdpi="96"
         inkscape:export-ydpi="96" />
    </g>
  </g>
</svg>
