<?xml version="1.0" encoding="UTF-8" standalone="no"?>
<!-- Created with Inkscape (http://www.inkscape.org/) -->

<svg
   width="15.882454mm"
   height="65.412117mm"
   viewBox="0 0 15.882454 65.412117"
   version="1.1"
   id="svg5"
   xml:space="preserve"
   xmlns:inkscape="http://www.inkscape.org/namespaces/inkscape"
   xmlns:sodipodi="http://sodipodi.sourceforge.net/DTD/sodipodi-0.dtd"
   xmlns="http://www.w3.org/2000/svg"
   xmlns:svg="http://www.w3.org/2000/svg"><sodipodi:namedview
     id="namedview7"
     pagecolor="#ffffff"
     bordercolor="#000000"
     borderopacity="0.25"
     inkscape:showpageshadow="2"
     inkscape:pageopacity="0.0"
     inkscape:pagecheckerboard="0"
     inkscape:deskcolor="#d1d1d1"
     inkscape:document-units="mm"
     showgrid="false" /><defs
     id="defs2" /><g
     inkscape:label="Layer 1"
     inkscape:groupmode="layer"
     id="layer1"
     transform="translate(-110.0689,-109.87677)"><g
       id="g7703"
       inkscape:export-filename="alto_icon.svg"
       inkscape:export-xdpi="96"
       inkscape:export-ydpi="96"><path
         style="fill:#686868;fill-opacity:0.935673;stroke:none;stroke-width:0.633;stroke-opacity:0.739766"
         d="m 118.75861,121.62372 v -11.74694 l -0.71628,0.42977 -0.14325,11.46042 z"
         id="path7348" /><path
         style="fill:#686868;fill-opacity:0.935673;stroke:none;stroke-width:0.633;stroke-opacity:0.739766"
         d="m 117.03955,121.98187 v -11.74694 l -0.71628,0.42977 -0.14325,11.46042 z"
         id="path7348-8" /><path
         style="fill:#f54319;fill-opacity:0.935673;stroke:none;stroke-width:0.633;stroke-opacity:0.739766"
         d="m 117.61257,122.25229 -0.14326,-5.30045 h -1.00278 v -0.57302 l -0.71628,-0.28651 -1.43255,0.14326 -0.57302,0.71627 0.14325,2.29209 1.00279,0.57302 1.00278,-0.28651 h 0.14326 l -0.14326,2.43534 z"
         id="path1013" /><path
         style="fill:#030100;fill-opacity:0.724138;stroke:none;stroke-width:0.633;stroke-opacity:0.739766"
         d="m 119.8608,125.83368 0.14326,-8.73857 -1.71907,-1.43255 -0.14325,-0.42977 4.44091,-0.28651 v 0.71628 l -1.57581,1.28929 -0.28651,9.02508 z"
         id="path4255" /><path
         style="fill:#62b4c9;fill-opacity:0.994152;stroke:none;stroke-width:0.633"
         d="m 122.6265,170.04399 0.42977,-43.97936 -0.42977,-2.29209 -1.43255,-1.43255 v -0.71627 h -6.01672 l 0.28651,1.00278 -1.43255,0.71628 -1.00279,1.00279 v 1.14604 l 0.28651,44.12262 1.57581,1.57581 2.14883,0.71627 2.14883,-0.28651 2.14883,-0.57302 z"
         id="path400" /><path
         style="fill:#dadada;fill-opacity:0.724138;stroke:none;stroke-width:0.633;stroke-opacity:0.739766"
         d="m 112.74189,169.12891 v 4.58417 l 3.58138,1.57581 h 3.15162 l 2.72185,-1.14605 0.57302,-0.42976 v -4.58417 l -1.71907,1.43255 -2.8651,0.71628 -2.29209,-0.14326 -2.14882,-1.14604 z"
         id="path4473" /><path
         style="fill:#e6e6e6;fill-opacity:0.97076;stroke:#e0e0e0;stroke-width:0.633;stroke-opacity:0.739766"
         d="m 112.59864,143.97154 -1.86232,0.71627 -0.28651,1.00279 2.00557,0.85953 3.43812,0.42977 5.44371,-0.28651 2.14882,-0.14326 2.14883,-1.00279 v -0.85953 l -2.29208,-0.71627 -0.14326,1.14604 -3.15161,0.14325 -6.15998,-0.28651 z"
         id="path402" /></g></g></svg>
