<?xml version="1.0" encoding="UTF-8" standalone="no"?>
<!-- Created with Inkscape (http://www.inkscape.org/) -->

<svg
   width="48.080086mm"
   height="75.516296mm"
   viewBox="0 0 48.080086 75.516296"
   version="1.1"
   id="svg5"
   xml:space="preserve"
   xmlns:inkscape="http://www.inkscape.org/namespaces/inkscape"
   xmlns:sodipodi="http://sodipodi.sourceforge.net/DTD/sodipodi-0.dtd"
   xmlns="http://www.w3.org/2000/svg"
   xmlns:svg="http://www.w3.org/2000/svg"><sodipodi:namedview
     id="namedview7"
     pagecolor="#ffffff"
     bordercolor="#000000"
     borderopacity="0.25"
     inkscape:showpageshadow="2"
     inkscape:pageopacity="0.0"
     inkscape:pagecheckerboard="0"
     inkscape:deskcolor="#d1d1d1"
     inkscape:document-units="mm"
     showgrid="false" /><defs
     id="defs2" /><g
     inkscape:label="Layer 1"
     inkscape:groupmode="layer"
     id="layer1"
     transform="translate(12.868202,-69.293714)"><g
       id="g9971"><path
         style="fill:#efd91d;fill-opacity:0.727012;stroke:#e1e1e1;stroke-width:0.633;stroke-opacity:1"
         d="m -12.541752,116.1527 0.578384,18.79747 8.386562,9.54333 h 28.62999 l 9.254138,-8.96495 0.578385,-19.08666 z"
         id="path402" /><path
         style="fill:#e7be13;fill-opacity:0.732759;stroke:#e1e1e1;stroke-width:0.633;stroke-opacity:1"
         d="M -1.667903,116.15152 1.917841,108.9229 H 19.55854 l 6.073029,7.51899 z"
         id="path5375"
         sodipodi:nodetypes="ccccc" /><path
         style="fill:#7d7d7d;fill-opacity:0.724138;stroke:#e1e1e1;stroke-width:0.633;stroke-opacity:1"
         d="M 10.505022,108.39799 10.274144,83.347549 6.00287,83.232109 5.771991,69.61021 l 12.4675,1e-6 -0.115442,13.506457 h -6.002867 l -0.11544,25.165882 z"
         id="path7702"
         sodipodi:nodetypes="ccccccccc" /><path
         style="fill:#dcdcdc;fill-opacity:0.744253;stroke:none;stroke-width:0.633;stroke-opacity:1"
         d="m -4.040393,83.116668 -7.84991,6.118313 -0.923518,3.924953 0.115441,21.240926 3.694073,1.50072 3.463194,-0.46176 3.116877,0.23088 V 83.347549 Z"
         id="path7758" /><path
         style="fill:none;fill-opacity:1;stroke:#e1e1e1;stroke-width:0.633;stroke-opacity:1"
         d="M -3.463194,116.01702 V 74.112363 l 29.090834,-0.115438 0.11544,41.789215 z"
         id="path7644"
         sodipodi:nodetypes="ccccc" /><path
         style="fill:none;fill-opacity:1;stroke:#e1e1e1;stroke-width:0.633;stroke-opacity:1"
         d="m -3.463195,93.159931 7.619027,-7.619026 6.810949,6.92639 6.926389,-6.695509 7.503589,6.580068 0.230881,-12.352059 -28.859956,0.346318 z"
         id="path7700"
         sodipodi:nodetypes="cccccccc" /></g></g></svg>
