<?xml version="1.0" encoding="UTF-8" standalone="no"?>
<!-- Created with Inkscape (http://www.inkscape.org/) -->

<svg
   width="210mm"
   height="297mm"
   viewBox="0 0 210 297"
   version="1.1"
   id="svg244"
   xml:space="preserve"
   inkscape:version="1.2 (dc2aeda, 2022-05-15)"
   sodipodi:docname="em_apex.svg"
   xmlns:inkscape="http://www.inkscape.org/namespaces/inkscape"
   xmlns:sodipodi="http://sodipodi.sourceforge.net/DTD/sodipodi-0.dtd"
   xmlns="http://www.w3.org/2000/svg"
   xmlns:svg="http://www.w3.org/2000/svg"><sodipodi:namedview
     id="namedview246"
     pagecolor="#ffffff"
     bordercolor="#000000"
     borderopacity="0.25"
     inkscape:showpageshadow="2"
     inkscape:pageopacity="0.0"
     inkscape:pagecheckerboard="0"
     inkscape:deskcolor="#d1d1d1"
     inkscape:document-units="mm"
     showgrid="false"
     inkscape:zoom="1.0091449"
     inkscape:cx="128.32647"
     inkscape:cy="534.61103"
     inkscape:window-width="1781"
     inkscape:window-height="953"
     inkscape:window-x="0"
     inkscape:window-y="25"
     inkscape:window-maximized="0"
     inkscape:current-layer="layer1" /><defs
     id="defs241" /><g
     inkscape:label="Layer 1"
     inkscape:groupmode="layer"
     id="layer1"><g
       id="g930"><rect
         style="fill:#ffff00;stroke-width:1.94945"
         id="rect543"
         width="20.146454"
         height="63.972603"
         x="97.142632"
         y="129.48386"
         ry="0.093649685" /><rect
         style="fill:#ffff00;stroke-width:1.233"
         id="rect543-7"
         width="20.146454"
         height="25.59144"
         x="96.417862"
         y="97.245071"
         ry="0.037463386" /><path
         style="fill:#ffff00;stroke-width:1.233"
         d="M 96.37628,121.42322 H 90.931292"
         id="path660" /><path
         style="fill:#ffff00;stroke-width:1.233"
         d="m 92.292277,122.90846 h -1.99671"
         id="path662" /><path
         style="fill:#1a1a1a;stroke-width:1.233"
         d="m 91.848563,122.90846 -1.33114,0.44372 0.66557,1.9967 -0.887426,1.99671 h 2.440422 l -0.221856,1.553 2.884133,-0.66557 1.774851,0.44371 -0.443711,1.10928 0.887426,0.44371 19.523368,-0.22185 0.66556,-1.77485 2.44043,0.22185 0.88742,-1.10928 1.99671,-0.22185 0.22186,-4.88085 -0.88743,0.22186 -0.22186,-1.33114 -3.10599,0.66557 -1.33114,-1.33114 -0.66556,1.77485 H 96.729406 l -0.66557,-1.77485 -1.109282,0.22186 0.443712,1.10928 -3.771559,-0.44371 z"
         id="path718" /><path
         style="fill:#ffff00;stroke-width:1.233"
         d="m 94.954554,203.76609 0.221856,7.54312 5.99012,3.10599 10.2054,0.22185 8.43054,-3.32784 v -7.76498 l -3.99341,-2.88413 -2.88414,1.99671 -6.65569,0.22185 -4.88084,-0.44371 -1.774851,-1.55299 z"
         id="path807" /><path
         style="fill:#1a1a1a;stroke-width:1.233"
         d="m 97.838687,192.98058 0.221856,3.10599 1.996707,5.32456 2.88414,1.77485 h 7.0994 l 4.88084,-1.10928 1.99671,-5.76827 0.22186,-3.10599 z"
         id="path805" /><path
         style="fill:#333333;stroke-width:1.233"
         d="m 116.51786,97.453997 v -2.947625 l 2.08068,-0.17339 v -3.467793 l -2.08068,0.346779 -1.04034,-4.854911 -2.08067,-3.121014 -0.17339,-2.774236 -1.21373,-0.173389 -2.08067,-3.987962 0.34677,-23.927776 -6.93558,-0.173389 0.69356,27.04879 -4.161355,2.080676 0.346775,2.774235 -2.080672,2.600844 -0.866949,4.508132 h -2.254065 l 0.173389,3.467793 h 1.907286 v 3.294404 z"
         id="path809" /><path
         style="fill:#000000;stroke-width:1.233"
         d="m 102.64669,79.59486 -3.987964,-24.274555 3.294404,-0.866949 0.17339,-1.907286 -5.37508,-0.346779 -4.334742,2.254065 0.346778,1.387118 3.987964,-0.693558 3.98796,25.661673 1.90729,-0.17339 z"
         id="path865" /></g></g></svg>
