<?xml version="1.0" encoding="UTF-8" standalone="no"?>
<!-- Created with Inkscape (http://www.inkscape.org/) -->

<svg
   width="42.641373mm"
   height="177.25742mm"
   viewBox="0 0 42.641373 177.25742"
   version="1.1"
   id="svg660"
   xml:space="preserve"
   inkscape:version="1.2 (dc2aeda, 2022-05-15)"
   sodipodi:docname="kronprins_icon.svg"
   xmlns:inkscape="http://www.inkscape.org/namespaces/inkscape"
   xmlns:sodipodi="http://sodipodi.sourceforge.net/DTD/sodipodi-0.dtd"
   xmlns="http://www.w3.org/2000/svg"
   xmlns:svg="http://www.w3.org/2000/svg"><sodipodi:namedview
     id="namedview662"
     pagecolor="#ffffff"
     bordercolor="#000000"
     borderopacity="0.25"
     inkscape:showpageshadow="2"
     inkscape:pageopacity="0.0"
     inkscape:pagecheckerboard="0"
     inkscape:deskcolor="#d1d1d1"
     inkscape:document-units="mm"
     showgrid="false"
     inkscape:zoom="1.083871"
     inkscape:cx="-295.6994"
     inkscape:cy="337.21726"
     inkscape:window-width="2061"
     inkscape:window-height="1331"
     inkscape:window-x="0"
     inkscape:window-y="25"
     inkscape:window-maximized="0"
     inkscape:current-layer="layer2" /><defs
     id="defs657" /><g
     inkscape:groupmode="layer"
     id="layer2"
     inkscape:label="svg"
     transform="translate(-39.10843,-19.554027)"><g
       id="g2364"
       transform="matrix(1.3790277,0,0,0.97683297,-22.743051,2.4898902)"><path
         style="fill:#e6e6e6;stroke:#e6e6e6;stroke-width:0.606528"
         d="M 40.210146,193.29647 40.878852,38.502243 c 0,0 2.022534,-7.855385 4.680939,-10.699013 3.03146,-3.242675 7.376029,-6.042068 11.813803,-6.146242 3.436617,-0.08067 6.819104,2.011882 9.361881,4.325133 2.403098,2.18618 3.664719,5.419491 4.903844,8.422628 0.897366,2.174852 1.783212,6.829156 1.783212,6.829156 l 0.668707,152.062565 z"
         id="path501"
         sodipodi:nodetypes="ccaaaaccc" /><path
         style="fill:#20312c;fill-opacity:1;stroke:#000000;stroke-width:0.249626"
         d="M 41.798577,57.924375 41.659251,39.915573 c 1.355436,-6.594765 3.331594,-11.01252 8.63833,-14.232765 6.93617,-4.209021 9.27291,-3.452967 15.371678,1.114347 4.104975,3.07418 5.512311,8.734033 6.781485,13.699345 0.538598,2.107124 0.27866,6.535451 0.27866,6.535451 V 57.63391 Z"
         id="path358"
         sodipodi:nodetypes="ccssaccc" /><ellipse
         style="fill:#bfb81d;fill-opacity:1;stroke:#000000;stroke-width:0.249626"
         id="path4111"
         cx="57.542652"
         cy="42.698738"
         rx="12.818178"
         ry="13.506602" /><ellipse
         style="fill:#20312c;fill-opacity:1;stroke:#000000;stroke-width:0.200076"
         id="path4111-4"
         cx="57.621193"
         cy="42.461342"
         rx="10.273781"
         ry="10.825553" /><text
         xml:space="preserve"
         style="font-size:11.7722px;fill:#ffffff;fill-opacity:1;stroke:#f6f6f6;stroke-width:0.981012;stroke-opacity:1"
         x="-46.981419"
         y="62.361988"
         id="text5086"
         transform="matrix(-0.02102124,-1.0207334,0.97923652,-0.02191206,0,0)"><tspan
           sodipodi:role="line"
           id="tspan5084"
           style="fill:#ffffff;stroke:#f6f6f6;stroke-width:0.981012;stroke-opacity:1"
           x="-46.981419"
           y="62.361988">H</tspan></text><path
         style="fill:#1a2b2a;fill-opacity:1;stroke:#1a2c27;stroke-width:0.250956;stroke-opacity:1"
         d="M 41.941539,58.165242 41.659902,100.42647 73.485359,99.99079 72.781264,57.729559 Z"
         id="path5397"
         sodipodi:nodetypes="ccccc" /><path
         style="fill:#1a2b2a;fill-opacity:1;stroke:#1a2c27;stroke-width:0.249626;stroke-opacity:1"
         d="m 41.658641,108.48897 -0.278651,42.26259 31.48813,-0.4357 -0.696638,-42.26259 z"
         id="path5397-9"
         sodipodi:nodetypes="ccccc" /><path
         style="fill:#1a2b2a;fill-opacity:1;stroke:#1a2c27;stroke-width:0.25332;stroke-opacity:1"
         d="M 41.5158,150.91289 41.228818,193.1717 73.65859,192.73603 72.941114,150.47722 Z"
         id="path5397-9-7"
         sodipodi:nodetypes="ccccc" /><path
         style="fill:#d2d6d1;fill-opacity:1;stroke:#e6e6e6;stroke-width:0.597217;stroke-dasharray:none;stroke-opacity:1"
         d="m 45.04979,127.70855 -0.228714,39.98311 25.845381,-0.4122 -0.571802,-39.98312 z"
         id="path5397-9-7-8"
         sodipodi:nodetypes="ccccc" /><path
         style="fill:#d2d6d1;fill-opacity:1;stroke:#1a2c27;stroke-width:0.249626;stroke-opacity:1"
         d="m 41.659251,73.487982 6.966404,-3.630807 16.719359,-0.58093 8.081028,3.630808 -0.278651,-7.116381 -7.802377,-4.211737 -15.46541,0.435698 -8.081018,3.630806 z"
         id="path8543" /><path
         style="fill:#d2d6d1;fill-opacity:1;stroke:#1a2c27;stroke-width:0.249626;stroke-opacity:1"
         d="m 73.565368,81.475757 -5.015808,-0.145232 -5.155133,2.61418 v 8.278242 l -2.089924,2.32372 -7.38438,-0.435702 -12.539523,6.244995 -0.557312,7.84253 5.851779,2.32371 4.179835,0.14524 11.982213,0.29046 0.417987,9.4401 5.851779,3.04988 4.597821,0.14523 5.155134,-2.46895 V 110.9579 l -1.950588,-0.87139 -0.27866,-15.975545 3.343871,-1.888018 -0.278651,-8.278242 z"
         id="path11137" /><path
         style="fill:#112321;fill-opacity:1;stroke:#1a2c27;stroke-width:0.249626;stroke-opacity:1"
         d="m 77.191652,86.858972 -3.467109,-1.642744 -4.097498,0.328548 -2.52153,0.821374 -1.260769,7.55662 -3.9399,4.271135 -7.513289,-0.565341 -9.822272,4.179376 0.315192,5.74961 19.6995,0.98565 2.836728,3.61403 0.157595,5.42106 -0.31519,2.79266 2.994324,1.31419 1.575959,0.32856 4.727878,-1.3142 0.157596,-5.7496 -1.89115,-1.14993 -0.63038,-20.370024 3.151919,-1.642742 z"
         id="path14736"
         sodipodi:nodetypes="ccccccccccccccccccccc" /><ellipse
         style="fill:#dce1de;fill-opacity:1;stroke:#1a2c27;stroke-width:0.16552;stroke-opacity:1"
         id="path18001-8-3"
         cx="47.406017"
         cy="106.37382"
         rx="2.0899377"
         ry="2.1785023" /><path
         style="fill:#1a2b2a;fill-opacity:1;stroke:#f7fbfa;stroke-width:0.249626;stroke-opacity:1"
         d="m 61.746811,96.86267 -7.249417,-0.164276 -7.879797,3.614036 0.157595,8.87083 23.166618,-0.16427 -0.157595,-8.54229 z"
         id="path20770" /><ellipse
         style="fill:#dce1de;fill-opacity:1;stroke:#1a2c27;stroke-width:0.249626;stroke-opacity:1"
         id="path18001"
         cx="57.334557"
         cy="102.6293"
         rx="3.1519198"
         ry="3.2854879" /><ellipse
         style="fill:#dce1de;fill-opacity:1;stroke:#1a2c27;stroke-width:0.16552;stroke-opacity:1"
         id="path18001-8"
         cx="72.778961"
         cy="117.90685"
         rx="2.0899377"
         ry="2.1785023" /><rect
         style="fill:#e6e6e6;fill-opacity:1;stroke:#f7fbfa;stroke-width:0.229516;stroke-opacity:1"
         id="rect24767"
         width="11.242259"
         height="12.327931"
         x="41.202732"
         y="181.08307"
         ry="0.039287914" /><rect
         style="fill:#e6e6e6;fill-opacity:1;stroke:#f7fbfa;stroke-width:0.223286;stroke-opacity:1"
         id="rect24767-3"
         width="11.248362"
         height="11.661329"
         x="62.207691"
         y="181.19412"
         ry="0.037163515"
         inkscape:transform-center-x="17.125887"
         inkscape:transform-center-y="-0.16522127" /><path
         style="fill:#e6e6e6;fill-opacity:1;stroke:#f7fbfa;stroke-width:0.265269;stroke-opacity:1"
         d="m 51.398772,180.80338 0.644775,-6.73025 10.045478,-0.16789 1.038662,7.81054 -0.807598,0.0802 -0.961643,-7.05138 -8.498514,0.0803 -0.519331,6.21925 z"
         id="path24919"
         sodipodi:nodetypes="ccccccccc" /></g></g></svg>
