<?xml version="1.0" encoding="UTF-8" standalone="no"?>
<!-- Created with Inkscape (http://www.inkscape.org/) -->

<svg
   width="18.487743mm"
   height="113.75248mm"
   viewBox="0 0 18.487743 113.75248"
   version="1.1"
   id="svg5"
   xml:space="preserve"
   sodipodi:docname="seaexplorer_icon.svg"
   inkscape:version="1.2 (dc2aeda, 2022-05-15)"
   inkscape:export-filename="seaexplorer_icon.png"
   inkscape:export-xdpi="96"
   inkscape:export-ydpi="96"
   xmlns:inkscape="http://www.inkscape.org/namespaces/inkscape"
   xmlns:sodipodi="http://sodipodi.sourceforge.net/DTD/sodipodi-0.dtd"
   xmlns="http://www.w3.org/2000/svg"
   xmlns:svg="http://www.w3.org/2000/svg"><sodipodi:namedview
     id="namedview16"
     pagecolor="#ffffff"
     bordercolor="#000000"
     borderopacity="0.25"
     inkscape:showpageshadow="2"
     inkscape:pageopacity="0.0"
     inkscape:pagecheckerboard="0"
     inkscape:deskcolor="#d1d1d1"
     inkscape:document-units="mm"
     showgrid="false"
     inkscape:zoom="2.4492323"
     inkscape:cx="-46.341051"
     inkscape:cy="216.59848"
     inkscape:window-width="1390"
     inkscape:window-height="1205"
     inkscape:window-x="0"
     inkscape:window-y="25"
     inkscape:window-maximized="0"
     inkscape:current-layer="g3971" /><defs
     id="defs2" /><g
     id="g3971"
     transform="rotate(-90,0.41455403,153.2057)"><path
       style="opacity:0.79023;fill:#ffff00;fill-opacity:0.994152;stroke:none;stroke-width:1.233"
       d="m 110.97577,156.88224 c 11.54692,-0.17293 15.63529,1.82581 27.165,2.47935 4.39323,0.249 13.69085,1.64291 13.69085,1.64291 l 0.95836,1.77981 -0.68454,1.50599 c 0,0 -9.03319,1.20256 -13.41704,1.36909 -11.4497,0.43493 -16.28747,2.54699 -27.74119,2.23554 -9.33492,-0.25384 -34.278401,-4.28917 -34.278401,-4.28917 l -0.136909,-3.1489 c 0,0 25.26068,-3.43709 34.44387,-3.57462 z"
       id="path404"
       sodipodi:nodetypes="scccccsccs" /><path
       style="opacity:0.79023;fill:#ffff00;fill-opacity:0.994152;stroke:none;stroke-width:1.233"
       d="m 39.932698,161.67152 29.72821,-0.31211 h 3.511206 l 3.90134,-0.78026 -0.07803,3.19909 -3.355152,-0.78027 -3.745288,-0.23408 -29.96229,-0.3121 v 0 z"
       id="path526" /><path
       style="opacity:0.79023;fill:#0000ff;fill-opacity:0.994152;stroke:none;stroke-width:1.21089"
       d="m 139.03693,159.41541 v 6.31788 l 13.0879,-1.2253 c 0,0 1.45256,-1.0072 1.49439,-1.73732 0.0448,-0.78159 -1.38701,-1.8189 -1.38701,-1.8189 z"
       id="path1863" /><rect
       style="opacity:0.79023;fill:#0009cb;fill-opacity:0.994152;stroke:none;stroke-width:1.233"
       id="rect1917"
       width="0.88893348"
       height="1.9260226"
       x="131.414"
       y="163.4156"
       ry="0.037463386" /><rect
       style="opacity:0.79023;fill:#ffffff;fill-opacity:0.994152;stroke:none;stroke-width:1.233"
       id="rect1917-0"
       width="0.88893348"
       height="1.9260226"
       x="132.28856"
       y="163.42096"
       ry="0.037463386" /><rect
       style="opacity:0.79023;fill:#f60b00;fill-opacity:0.994152;stroke:none;stroke-width:1.233"
       id="rect1917-0-3"
       width="0.88893348"
       height="1.9260226"
       x="133.22636"
       y="163.45445"
       ry="0.037463386" /><rect
       style="opacity:0.79023;fill:#f4eeee;fill-opacity:0.994152;stroke:none;stroke-width:0.826589"
       id="rect2223"
       width="13.16"
       height="1.0251597"
       x="39.867764"
       y="161.58626"
       ry="0.016836841" /><path
       style="opacity:1;fill:#0000ff;fill-opacity:1;stroke:none;stroke-width:1.66453"
       d="m 76.779072,160.06722 -0.110403,3.61173 9.163672,0.61332 v -4.37893 z"
       id="path3127" /><path
       style="opacity:1;fill:#0000ff;fill-opacity:0.994152;stroke:none;stroke-width:1.61628"
       d="m 76.630215,163.65315 0.317524,7.62573 h 4.469815 l 4.452578,-7.18913 z"
       id="path406-3" /><path
       style="fill:#0000ff;fill-opacity:0.994152;stroke:none;stroke-width:1.61628"
       d="m 76.693224,160.41687 0.317524,-7.62573 h 4.469815 l 4.452579,7.18913 z"
       id="path406-3-8" /></g></svg>
