<?xml version="1.0" encoding="UTF-8" standalone="no"?>
<!-- Created with Inkscape (http://www.inkscape.org/) -->

<svg
   width="69.320129mm"
   height="204.99261mm"
   viewBox="0 0 69.320129 204.99261"
   version="1.1"
   id="svg5"
   xml:space="preserve"
   xmlns:inkscape="http://www.inkscape.org/namespaces/inkscape"
   xmlns:sodipodi="http://sodipodi.sourceforge.net/DTD/sodipodi-0.dtd"
   xmlns="http://www.w3.org/2000/svg"
   xmlns:svg="http://www.w3.org/2000/svg"><sodipodi:namedview
     id="namedview7"
     pagecolor="#ffffff"
     bordercolor="#000000"
     borderopacity="0.25"
     inkscape:showpageshadow="2"
     inkscape:pageopacity="0.0"
     inkscape:pagecheckerboard="0"
     inkscape:deskcolor="#d1d1d1"
     inkscape:document-units="mm"
     showgrid="false"
     inkscape:zoom="2.0958913"
     inkscape:cx="596.40497"
     inkscape:cy="657.95396"
     inkscape:window-width="2234"
     inkscape:window-height="1232"
     inkscape:window-x="0"
     inkscape:window-y="25"
     inkscape:window-maximized="0"
     inkscape:current-layer="layer1" /><defs
     id="defs2" /><g
     inkscape:label="Layer 1"
     inkscape:groupmode="layer"
     id="layer1"
     transform="translate(-150.2883,-54.673762)"><g
       id="g2133"
       inkscape:export-filename="seaglider.svg"
       inkscape:export-xdpi="96"
       inkscape:export-ydpi="96"><g
         id="g815"
         transform="translate(74.433905,3.1250876)"
         style="opacity:0.79023"><path
           style="fill:#000000;fill-opacity:0.994152;stroke-width:0.633;stroke-opacity:0.739766"
           d="m 99.434604,132.95827 -23.580206,7.38657 0.568198,8.80707 H 100.571 145.17452 v -8.80707 l -23.58021,-7.10247 z"
           id="path538" /><path
           style="fill:#ffff00;fill-opacity:0.994152;stroke-width:0.633;stroke-opacity:0.739766"
           d="m 107.10527,172.16392 c -2.11065,-6.46754 -4.58094,-12.88928 -5.68197,-19.60283 -1.426643,-8.699 -1.2149,-17.60633 -1.1364,-26.42119 0.0972,-10.91018 0.84689,-21.82067 1.98869,-32.671373 1.00212,-9.523326 2.23164,-19.05159 4.26149,-28.409886 0.3778,-1.692459 3.16132,-15.103894 4.54558,-13.352647 2.80218,3.816783 3.19054,8.996358 4.26148,13.636746 1.70165,7.373274 2.49358,14.932322 3.40919,22.44381 0.87454,7.174529 1.50453,14.38011 1.98869,21.59151 0.4508,6.71456 0.89355,13.44147 0.85229,20.17102 -0.032,5.21612 -0.25187,10.44389 -0.85229,15.62544 -0.80826,6.97516 -1.74228,13.99387 -3.69329,20.73922 -0.76713,2.65223 -1.93166,5.18098 -3.12508,7.67067 -0.42144,0.8792 -1.19412,1.60854 -1.4205,2.55689 -0.57212,2.39667 0.2841,7.38657 0.2841,7.38657 v 2.84099 h -3.97738 c 0,0 0.16653,-7.45544 -0.5682,-11.07986 -0.22022,-1.08633 -0.79252,-2.07134 -1.1364,-3.12508 z"
           id="path386"
           sodipodi:nodetypes="aaaaccaaaaaaaacccaa" /><path
           style="fill:#ff2a2a;fill-opacity:0.994152;stroke-width:0.633;stroke-opacity:0.739766"
           d="m 109.94626,186.08476 v 70.45652 l 2.27279,-0.8523 -0.2841,-69.32012 z"
           id="path594" /></g><path
         style="opacity:0.79023;fill:#000000;fill-opacity:0.994152;stroke-width:0.633;stroke-opacity:0.739766"
         d="m 177.56179,145.17452 15.62544,0.2841 c 0,0 0.47735,1.73094 0.50519,2.61989 0.11625,3.71132 -1.42049,11.04847 -1.42049,11.04847 l -3.56705,15.75168 c 0,0 -2.19383,1.29948 -3.40942,1.29425 -1.07275,-0.005 -2.99886,-1.16801 -2.99886,-1.16801 l -4.35609,-16.0674 c 0,0 -1.8781,-6.79106 -1.57835,-10.22756 0.10814,-1.23976 1.19963,-3.53542 1.19963,-3.53542 z"
         id="path1372"
         sodipodi:nodetypes="ccaccaccac" /></g></g></svg>
